<?xml version="1.0" encoding="UTF-8"?>
<svg xmlns="http://www.w3.org/2000/svg" xmlns:xlink="http://www.w3.org/1999/xlink" width="70px" height="102px" viewBox="0 0 70 102" version="1.1">
<g id="surface1">
<path style="fill-rule:nonzero;fill:rgb(100%,100%,100%);fill-opacity:1;stroke-width:0.605879;stroke-linecap:butt;stroke-linejoin:miter;stroke:rgb(50.196078%,50.196078%,50.196078%);stroke-opacity:1;stroke-miterlimit:4;" d="M 7.264346 0.30665 L 179.917284 0.30665 C 183.863098 0.30665 187.065802 3.516252 187.065802 7.472036 L 187.065802 259.436034 C 187.065802 263.391818 183.863098 266.60142 179.917284 266.60142 L 7.264346 266.60142 C 3.318532 266.60142 0.115828 263.391818 0.115828 259.436034 L 0.115828 7.472036 C 0.115828 3.516252 3.318532 0.30665 7.264346 0.30665 Z M 7.264346 0.30665 " transform="matrix(0.37322,0,0,0.382154,0.0700519,0)"/>
<path style="fill-rule:nonzero;fill:rgb(100%,100%,100%);fill-opacity:1;stroke-width:0.5;stroke-linecap:butt;stroke-linejoin:miter;stroke:rgb(0%,0%,0%);stroke-opacity:1;stroke-miterlimit:4;" d="M 177.499556 250.032104 C 177.499556 253.885671 174.39105 257.033943 170.581298 257.033943 L 16.694529 257.033943 C 12.895244 257.033943 9.786737 253.885671 9.786737 250.032104 L 9.786737 17.080399 C 9.786737 13.226832 12.895244 10.068338 16.694529 10.068338 L 170.581298 10.068338 C 174.39105 10.068338 177.499556 13.226832 177.499556 17.080399 Z M 177.499556 250.032104 " transform="matrix(0.37322,0,0,0.382154,0.0700519,0)"/>
<path style="fill-rule:evenodd;fill:rgb(100%,100%,100%);fill-opacity:1;stroke-width:2.849;stroke-linecap:butt;stroke-linejoin:miter;stroke:rgb(9.019608%,2.352941%,47.843137%);stroke-opacity:1;stroke-miterlimit:10;" d="M 17.12365 11.519814 C 13.889547 11.519814 11.283425 14.085452 11.283425 17.274611 L 11.283425 249.715232 C 11.283425 252.904391 13.889547 255.470029 17.12365 255.470029 L 170.235908 255.470029 C 173.480477 255.470029 176.076133 252.904391 176.076133 249.715232 L 176.076133 17.274611 C 176.076133 14.085452 173.480477 11.519814 170.235908 11.519814 Z M 17.12365 11.519814 " transform="matrix(0.37322,0,0,0.382154,0.0700519,0)"/>
<path style=" stroke:none;fill-rule:evenodd;fill:rgb(100%,100%,100%);fill-opacity:1;" d="M 7.078125 6.558594 C 6.773438 6.558594 6.53125 6.808594 6.53125 7.113281 L 6.53125 94.917969 C 6.53125 95.226562 6.773438 95.472656 7.078125 95.472656 L 62.851562 95.472656 C 63.15625 95.472656 63.402344 95.226562 63.402344 94.917969 L 63.402344 7.113281 C 63.402344 6.808594 63.15625 6.558594 62.851562 6.558594 Z M 7.078125 6.558594 "/>
<path style=" stroke:none;fill-rule:evenodd;fill:rgb(19.215686%,20%,56.470588%);fill-opacity:1;" d="M 18.117188 18.140625 C 17.96875 18.140625 17.851562 18.257812 17.851562 18.40625 L 17.851562 83.90625 C 17.851562 84.054688 17.96875 84.175781 18.117188 84.175781 L 51.480469 84.175781 C 51.625 84.175781 51.746094 84.054688 51.746094 83.90625 L 51.746094 18.40625 C 51.746094 18.257812 51.625 18.140625 51.480469 18.140625 Z M 18.117188 18.140625 "/>
<path style=" stroke:none;fill-rule:evenodd;fill:rgb(100%,100%,100%);fill-opacity:1;" d="M 23.363281 20.460938 C 21.625 20.460938 20.226562 21.871094 20.226562 23.625 L 20.226562 78.410156 C 20.226562 80.160156 21.625 81.570312 23.363281 81.570312 L 45.875 81.570312 C 47.609375 81.570312 49.007812 80.160156 49.007812 78.410156 L 49.007812 23.625 C 49.007812 21.871094 47.609375 20.460938 45.875 20.460938 Z M 23.363281 20.460938 "/>
<path style=" stroke:none;fill-rule:evenodd;fill:rgb(19.215686%,20%,56.470588%);fill-opacity:1;" d="M 23.71875 22.980469 C 23.128906 22.980469 22.65625 23.453125 22.65625 24.042969 L 22.65625 77.988281 C 22.65625 78.578125 23.128906 79.050781 23.71875 79.050781 L 45.59375 79.050781 C 46.1875 79.050781 46.660156 78.578125 46.660156 77.988281 L 46.660156 24.042969 C 46.660156 23.453125 46.1875 22.980469 45.59375 22.980469 Z M 23.71875 22.980469 "/>
<path style="fill:none;stroke-width:1.64089;stroke-linecap:butt;stroke-linejoin:miter;stroke:rgb(9.019608%,2.352941%,47.843137%);stroke-opacity:1;stroke-miterlimit:10;" d="M 49.035556 46.907213 C 48.637835 46.907213 48.323844 47.213862 48.323844 47.602286 L 48.323844 219.295563 C 48.323844 219.694208 48.637835 220.000857 49.035556 220.000857 L 138.146074 220.000857 C 138.543795 220.000857 138.857786 219.694208 138.857786 219.295563 L 138.857786 47.602286 C 138.857786 47.213862 138.543795 46.907213 138.146074 46.907213 Z M 49.035556 46.907213 " transform="matrix(0.37322,0,0,0.382154,0.0700519,0)"/>
<path style="fill:none;stroke-width:2.06341;stroke-linecap:butt;stroke-linejoin:round;stroke:rgb(9.019608%,2.352941%,47.843137%);stroke-opacity:1;stroke-miterlimit:10;" d="M 63.332592 53.367304 C 58.664599 53.367304 54.907179 57.057324 54.907179 61.646851 L 54.907179 205.261219 C 54.907179 209.850746 58.664599 213.540766 63.332592 213.540766 L 123.849038 213.540766 C 128.517031 213.540766 132.274451 209.850746 132.274451 205.261219 L 132.274451 61.646851 C 132.274451 57.057324 128.517031 53.367304 123.849038 53.367304 Z M 63.332592 53.367304 " transform="matrix(0.37322,0,0,0.382154,0.0700519,0)"/>
<path style="fill:none;stroke-width:1.79684;stroke-linecap:butt;stroke-linejoin:round;stroke:rgb(9.019608%,2.352941%,47.843137%);stroke-opacity:1;stroke-miterlimit:10;" d="M 64.452492 59.960276 C 62.882539 59.960276 61.616111 61.207319 61.616111 62.750791 L 61.616111 204.147058 C 61.616111 205.690529 62.882539 206.937572 64.452492 206.937572 L 122.729138 206.937572 C 124.299091 206.937572 125.565519 205.690529 125.565519 204.147058 L 125.565519 62.750791 C 125.565519 61.207319 124.299091 59.960276 122.729138 59.960276 Z M 64.452492 59.960276 " transform="matrix(0.37322,0,0,0.382154,0.0700519,0)"/>
<path style=" stroke:none;fill-rule:evenodd;fill:rgb(9.019608%,2.352941%,47.843137%);fill-opacity:1;" d="M 7.125 7.195312 L 9.628906 7.195312 L 7.148438 9.691406 Z M 7.125 7.195312 "/>
<path style=" stroke:none;fill-rule:evenodd;fill:rgb(9.019608%,2.352941%,47.843137%);fill-opacity:1;" d="M 62.765625 7.226562 L 60.261719 7.226562 L 62.742188 9.722656 Z M 62.765625 7.226562 "/>
<path style=" stroke:none;fill-rule:evenodd;fill:rgb(9.019608%,2.352941%,47.843137%);fill-opacity:1;" d="M 62.8125 94.917969 L 60.308594 94.917969 L 62.789062 92.421875 Z M 62.8125 94.917969 "/>
<path style=" stroke:none;fill-rule:evenodd;fill:rgb(9.019608%,2.352941%,47.843137%);fill-opacity:1;" d="M 7.125 94.90625 L 9.628906 94.90625 L 7.148438 92.410156 Z M 7.125 94.90625 "/>
<path style="fill:none;stroke-width:2.6754;stroke-linecap:butt;stroke-linejoin:miter;stroke:rgb(9.019608%,2.352941%,47.843137%);stroke-opacity:1;stroke-miterlimit:10;" d="M 18.778844 17.164618 C 17.962469 17.164618 17.313555 17.808582 17.313555 18.616094 L 17.313555 248.37864 C 17.313555 249.186151 17.962469 249.830116 18.778844 249.830116 L 168.217413 249.830116 C 169.033789 249.830116 169.682703 249.186151 169.682703 248.37864 L 169.682703 18.616094 C 169.682703 17.808582 169.033789 17.164618 168.217413 17.164618 Z M 18.778844 17.164618 " transform="matrix(0.37322,0,0,0.382154,0.104644,-0.0165594)"/>
<path style="fill:none;stroke-width:0.863326;stroke-linecap:butt;stroke-linejoin:miter;stroke:rgb(9.019608%,2.352941%,47.843137%);stroke-opacity:1;stroke-miterlimit:10;" d="M 18.90444 18.830749 L 25.613372 18.830749 L 18.967238 25.362391 Z M 18.90444 18.830749 " transform="matrix(0.37322,0,0,0.382154,0.104644,-0.0165594)"/>
<path style="fill:none;stroke-width:0.863326;stroke-linecap:butt;stroke-linejoin:miter;stroke:rgb(9.019608%,2.352941%,47.843137%);stroke-opacity:1;stroke-miterlimit:10;" d="M 168.11275 18.830749 L 161.403818 18.830749 L 168.049952 25.362391 Z M 168.11275 18.830749 " transform="matrix(0.37322,0,0,0.382154,0.104644,-0.0165594)"/>
<path style="fill:none;stroke-width:0.863326;stroke-linecap:butt;stroke-linejoin:miter;stroke:rgb(9.019608%,2.352941%,47.843137%);stroke-opacity:1;stroke-miterlimit:10;" d="M 168.11275 248.37864 L 161.403818 248.37864 L 168.039485 241.846997 Z M 168.11275 248.37864 " transform="matrix(0.37322,0,0,0.382154,0.104644,-0.0165594)"/>
<path style="fill:none;stroke-width:0.863326;stroke-linecap:butt;stroke-linejoin:miter;stroke:rgb(9.019608%,2.352941%,47.843137%);stroke-opacity:1;stroke-miterlimit:10;" d="M 18.90444 248.337753 L 25.613372 248.337753 L 18.967238 241.816332 Z M 18.90444 248.337753 " transform="matrix(0.37322,0,0,0.382154,0.104644,-0.0165594)"/>
<path style="fill-rule:evenodd;fill:rgb(19.215686%,20%,56.470588%);fill-opacity:1;stroke-width:1.31422;stroke-linecap:round;stroke-linejoin:round;stroke:rgb(9.019608%,2.352941%,47.843137%);stroke-opacity:1;stroke-miterlimit:10;" d="M 21.480118 142.832505 L 21.480118 149.088511 L 44.056039 137.391613 L 44.056039 130.982773 Z M 21.480118 142.832505 " transform="matrix(0.37322,0,0,0.383382,0.186319,-0.368725)"/>
<path style="fill-rule:evenodd;fill:rgb(19.215686%,20%,56.470588%);fill-opacity:1;stroke-width:1.31422;stroke-linecap:round;stroke-linejoin:round;stroke:rgb(9.019608%,2.352941%,47.843137%);stroke-opacity:1;stroke-miterlimit:10;" d="M 21.584782 154.661859 L 21.584782 160.917865 L 44.171169 149.220967 L 44.171169 142.812127 Z M 21.584782 154.661859 " transform="matrix(0.37322,0,0,0.383382,0.186319,-0.368725)"/>
<path style="fill-rule:evenodd;fill:rgb(19.215686%,20%,56.470588%);fill-opacity:1;stroke-width:1.31422;stroke-linecap:round;stroke-linejoin:round;stroke:rgb(9.019608%,2.352941%,47.843137%);stroke-opacity:1;stroke-miterlimit:10;" d="M 21.637113 130.840128 L 21.637113 137.096134 L 44.2235 125.399236 L 44.2235 118.990396 Z M 21.637113 130.840128 " transform="matrix(0.37322,0,0,0.383382,0.186319,-0.368725)"/>
<path style="fill-rule:evenodd;fill:rgb(100%,100%,100%);fill-opacity:1;stroke-width:1.31422;stroke-linecap:round;stroke-linejoin:round;stroke:rgb(9.019608%,2.352941%,47.843137%);stroke-opacity:1;stroke-miterlimit:10;" d="M 21.53245 137.361046 L 21.53245 131.10504 L 44.118837 142.801938 L 44.118837 149.210778 Z M 21.53245 137.361046 " transform="matrix(0.37322,0,0,0.383382,0.186319,-0.368725)"/>
<path style="fill-rule:evenodd;fill:rgb(19.215686%,20%,56.470588%);fill-opacity:1;stroke-width:1.31422;stroke-linecap:round;stroke-linejoin:round;stroke:rgb(9.019608%,2.352941%,47.843137%);stroke-opacity:1;stroke-miterlimit:10;" d="M 21.521984 119.010774 L 21.521984 125.26678 L 44.10837 113.569882 L 44.10837 107.161042 Z M 21.521984 119.010774 " transform="matrix(0.37322,0,0,0.383382,0.186319,-0.368725)"/>
<path style="fill-rule:evenodd;fill:rgb(100%,100%,100%);fill-opacity:1;stroke-width:1.31422;stroke-linecap:round;stroke-linejoin:round;stroke:rgb(9.019608%,2.352941%,47.843137%);stroke-opacity:1;stroke-miterlimit:10;" d="M 21.41732 125.297347 L 21.41732 119.05153 L 43.993241 130.748427 L 43.993241 137.157268 Z M 21.41732 125.297347 " transform="matrix(0.37322,0,0,0.383382,0.186319,-0.368725)"/>
<path style="fill-rule:evenodd;fill:rgb(19.215686%,20%,56.470588%);fill-opacity:1;stroke-width:1.31422;stroke-linecap:round;stroke-linejoin:round;stroke:rgb(9.019608%,2.352941%,47.843137%);stroke-opacity:1;stroke-miterlimit:10;" d="M 21.616181 166.603291 L 21.616181 172.859297 L 44.202568 161.162399 L 44.202568 154.753559 Z M 21.616181 166.603291 " transform="matrix(0.37322,0,0,0.383382,0.186319,-0.368725)"/>
<path style="fill-rule:evenodd;fill:rgb(100%,100%,100%);fill-opacity:1;stroke-width:1.31422;stroke-linecap:round;stroke-linejoin:round;stroke:rgb(9.019608%,2.352941%,47.843137%);stroke-opacity:1;stroke-miterlimit:10;" d="M 21.364988 149.119078 L 21.364988 142.863072 L 43.940909 154.570158 L 43.940909 160.978999 Z M 21.364988 149.119078 " transform="matrix(0.37322,0,0,0.383382,0.186319,-0.368725)"/>
<path style="fill-rule:evenodd;fill:rgb(19.215686%,20%,56.470588%);fill-opacity:1;stroke-width:1.31422;stroke-linecap:round;stroke-linejoin:round;stroke:rgb(9.019608%,2.352941%,47.843137%);stroke-opacity:1;stroke-miterlimit:10;" d="M 21.396387 83.227233 L 21.396387 89.483239 L 43.972308 77.786342 L 43.972308 71.377501 Z M 21.396387 83.227233 " transform="matrix(0.37322,0,0,0.383382,0.186319,-0.368725)"/>
<path style="fill-rule:evenodd;fill:rgb(19.215686%,20%,56.470588%);fill-opacity:1;stroke-width:1.31422;stroke-linecap:round;stroke-linejoin:round;stroke:rgb(9.019608%,2.352941%,47.843137%);stroke-opacity:1;stroke-miterlimit:10;" d="M 21.511517 95.056587 L 21.511517 101.312593 L 44.087438 89.615695 L 44.087438 83.206855 Z M 21.511517 95.056587 " transform="matrix(0.37322,0,0,0.383382,0.186319,-0.368725)"/>
<path style="fill-rule:evenodd;fill:rgb(19.215686%,20%,56.470588%);fill-opacity:1;stroke-width:1.31422;stroke-linecap:round;stroke-linejoin:round;stroke:rgb(9.019608%,2.352941%,47.843137%);stroke-opacity:1;stroke-miterlimit:10;" d="M 21.553383 71.234856 L 21.553383 77.490862 L 44.13977 65.793965 L 44.13977 59.385124 Z M 21.553383 71.234856 " transform="matrix(0.37322,0,0,0.383382,0.186319,-0.368725)"/>
<path style="fill-rule:evenodd;fill:rgb(100%,100%,100%);fill-opacity:1;stroke-width:1.31422;stroke-linecap:round;stroke-linejoin:round;stroke:rgb(9.019608%,2.352941%,47.843137%);stroke-opacity:1;stroke-miterlimit:10;" d="M 21.448719 77.755775 L 21.448719 71.499768 L 44.035106 83.196666 L 44.035106 89.605507 Z M 21.448719 77.755775 " transform="matrix(0.37322,0,0,0.383382,0.186319,-0.368725)"/>
<path style="fill-rule:evenodd;fill:rgb(19.215686%,20%,56.470588%);fill-opacity:1;stroke-width:1.31422;stroke-linecap:round;stroke-linejoin:round;stroke:rgb(9.019608%,2.352941%,47.843137%);stroke-opacity:1;stroke-miterlimit:10;" d="M 21.438253 59.405502 L 21.438253 65.661508 L 44.02464 53.964611 L 44.02464 47.55577 Z M 21.438253 59.405502 " transform="matrix(0.37322,0,0,0.383382,0.186319,-0.368725)"/>
<path style="fill-rule:evenodd;fill:rgb(100%,100%,100%);fill-opacity:1;stroke-width:1.31422;stroke-linecap:round;stroke-linejoin:round;stroke:rgb(9.019608%,2.352941%,47.843137%);stroke-opacity:1;stroke-miterlimit:10;" d="M 21.333589 65.692075 L 21.333589 59.436069 L 43.90951 71.132967 L 43.90951 77.541807 Z M 21.333589 65.692075 " transform="matrix(0.37322,0,0,0.383382,0.186319,-0.368725)"/>
<path style="fill-rule:evenodd;fill:rgb(100%,100%,100%);fill-opacity:1;stroke-width:1.31422;stroke-linecap:round;stroke-linejoin:round;stroke:rgb(9.019608%,2.352941%,47.843137%);stroke-opacity:1;stroke-miterlimit:10;" d="M 21.501051 53.934044 L 21.501051 47.678038 L 44.076971 59.374935 L 44.076971 65.783776 Z M 21.501051 53.934044 " transform="matrix(0.37322,0,0,0.383382,0.186319,-0.368725)"/>
<path style="fill-rule:evenodd;fill:rgb(19.215686%,20%,56.470588%);fill-opacity:1;stroke-width:1.31422;stroke-linecap:round;stroke-linejoin:round;stroke:rgb(9.019608%,2.352941%,47.843137%);stroke-opacity:1;stroke-miterlimit:10;" d="M 21.542916 106.998019 L 21.542916 113.254025 L 44.118837 101.557128 L 44.118837 95.148287 Z M 21.542916 106.998019 " transform="matrix(0.37322,0,0,0.383382,0.186319,-0.368725)"/>
<path style="fill-rule:evenodd;fill:rgb(100%,100%,100%);fill-opacity:1;stroke-width:1.31422;stroke-linecap:round;stroke-linejoin:round;stroke:rgb(9.019608%,2.352941%,47.843137%);stroke-opacity:1;stroke-miterlimit:10;" d="M 21.281257 89.513806 L 21.281257 83.2578 L 43.857178 94.954698 L 43.857178 101.373727 Z M 21.281257 89.513806 " transform="matrix(0.37322,0,0,0.383382,0.186319,-0.368725)"/>
<path style="fill-rule:evenodd;fill:rgb(100%,100%,100%);fill-opacity:1;stroke-width:1.31422;stroke-linecap:round;stroke-linejoin:round;stroke:rgb(9.019608%,2.352941%,47.843137%);stroke-opacity:1;stroke-miterlimit:10;" d="M 21.584782 113.539316 L 21.584782 107.283309 L 44.160702 118.980207 L 44.160702 125.389047 Z M 21.584782 113.539316 " transform="matrix(0.37322,0,0,0.383382,0.186319,-0.368725)"/>
<path style="fill-rule:evenodd;fill:rgb(100%,100%,100%);fill-opacity:1;stroke-width:1.31422;stroke-linecap:round;stroke-linejoin:round;stroke:rgb(9.019608%,2.352941%,47.843137%);stroke-opacity:1;stroke-miterlimit:10;" d="M 21.312657 101.455238 L 21.312657 95.199232 L 43.888577 106.89613 L 43.888577 113.30497 Z M 21.312657 101.455238 " transform="matrix(0.37322,0,0,0.383382,0.186319,-0.368725)"/>
<path style="fill-rule:evenodd;fill:rgb(19.215686%,20%,56.470588%);fill-opacity:1;stroke-width:1.31422;stroke-linecap:round;stroke-linejoin:round;stroke:rgb(9.019608%,2.352941%,47.843137%);stroke-opacity:1;stroke-miterlimit:10;" d="M 21.480118 202.284942 L 21.480118 208.540949 L 44.056039 196.833862 L 44.056039 190.425022 Z M 21.480118 202.284942 " transform="matrix(0.37322,0,0,0.383382,0.186319,-0.368725)"/>
<path style="fill-rule:evenodd;fill:rgb(19.215686%,20%,56.470588%);fill-opacity:1;stroke-width:1.31422;stroke-linecap:round;stroke-linejoin:round;stroke:rgb(9.019608%,2.352941%,47.843137%);stroke-opacity:1;stroke-miterlimit:10;" d="M 21.584782 214.114296 L 21.584782 220.360114 L 44.171169 208.663216 L 44.171169 202.254376 Z M 21.584782 214.114296 " transform="matrix(0.37322,0,0,0.383382,0.186319,-0.368725)"/>
<path style="fill-rule:evenodd;fill:rgb(100%,100%,100%);fill-opacity:1;stroke-width:1.31422;stroke-linecap:round;stroke-linejoin:round;stroke:rgb(9.019608%,2.352941%,47.843137%);stroke-opacity:1;stroke-miterlimit:10;" d="M 21.364988 208.571516 L 21.364988 202.30532 L 43.940909 214.012407 L 43.940909 220.421247 Z M 21.364988 208.571516 " transform="matrix(0.37322,0,0,0.383382,0.186319,-0.368725)"/>
<path style=" stroke:none;fill-rule:evenodd;fill:rgb(19.215686%,20%,56.470588%);fill-opacity:1;" d="M 8.261719 72.582031 L 8.261719 74.980469 L 16.691406 70.496094 L 16.691406 68.039062 Z M 8.261719 72.582031 "/>
<path style="fill-rule:evenodd;fill:rgb(19.215686%,20%,56.470588%);fill-opacity:1;stroke-width:1.31422;stroke-linecap:round;stroke-linejoin:round;stroke:rgb(9.019608%,2.352941%,47.843137%);stroke-opacity:1;stroke-miterlimit:10;" d="M 21.521984 178.463212 L 21.521984 184.709029 L 44.10837 173.012131 L 44.10837 166.603291 Z M 21.521984 178.463212 " transform="matrix(0.37322,0,0,0.383382,0.186319,-0.368725)"/>
<path style="fill-rule:evenodd;fill:rgb(100%,100%,100%);fill-opacity:1;stroke-width:1.31422;stroke-linecap:round;stroke-linejoin:round;stroke:rgb(9.019608%,2.352941%,47.843137%);stroke-opacity:1;stroke-miterlimit:10;" d="M 21.396387 161.06051 L 21.396387 154.804504 L 43.972308 166.501402 L 43.972308 172.910242 Z M 21.396387 161.06051 " transform="matrix(0.37322,0,0,0.383382,0.186319,-0.368725)"/>
<path style="fill:none;stroke-width:1.31422;stroke-linecap:round;stroke-linejoin:round;stroke:rgb(9.019608%,2.352941%,47.843137%);stroke-opacity:1;stroke-miterlimit:10;" d="M 21.637113 190.282377 L 21.637113 196.538383 L 44.2235 184.841485 L 44.2235 178.432645 Z M 21.637113 190.282377 " transform="matrix(0.37322,0,0,0.383382,0.186319,-0.368725)"/>
<path style="fill-rule:evenodd;fill:rgb(100%,100%,100%);fill-opacity:1;stroke-width:1.31422;stroke-linecap:round;stroke-linejoin:round;stroke:rgb(9.019608%,2.352941%,47.843137%);stroke-opacity:1;stroke-miterlimit:10;" d="M 21.53245 196.803295 L 21.53245 190.547289 L 44.118837 202.244187 L 44.118837 208.653027 Z M 21.53245 196.803295 " transform="matrix(0.37322,0,0,0.383382,0.186319,-0.368725)"/>
<path style="fill-rule:evenodd;fill:rgb(100%,100%,100%);fill-opacity:1;stroke-width:1.31422;stroke-linecap:round;stroke-linejoin:round;stroke:rgb(9.019608%,2.352941%,47.843137%);stroke-opacity:1;stroke-miterlimit:10;" d="M 21.41732 184.749785 L 21.41732 178.493778 L 43.993241 190.190676 L 43.993241 196.599517 Z M 21.41732 184.749785 " transform="matrix(0.37322,0,0,0.383382,0.186319,-0.368725)"/>
<path style="fill-rule:evenodd;fill:rgb(100%,100%,100%);fill-opacity:1;stroke-width:1.31422;stroke-linecap:round;stroke-linejoin:round;stroke:rgb(9.019608%,2.352941%,47.843137%);stroke-opacity:1;stroke-miterlimit:10;" d="M 21.584782 172.981564 L 21.584782 166.725558 L 44.160702 178.422456 L 44.160702 184.831296 Z M 21.584782 172.981564 " transform="matrix(0.37322,0,0,0.383382,0.186319,-0.368725)"/>
<path style="fill:none;stroke-width:0.5;stroke-linecap:butt;stroke-linejoin:miter;stroke:rgb(0%,0%,0%);stroke-opacity:1;stroke-miterlimit:4;" d="M 177.394893 249.827671 C 177.394893 253.681238 174.286386 256.839732 170.476634 256.839732 L 16.589866 256.839732 C 12.79058 256.839732 9.682074 253.681238 9.682074 249.827671 L 9.682074 16.875966 C 9.682074 13.022399 12.79058 9.874127 16.589866 9.874127 L 170.476634 9.874127 C 174.286386 9.874127 177.394893 13.022399 177.394893 16.875966 Z M 177.394893 249.827671 " transform="matrix(0.37322,0,0,0.382154,0.0700519,0)"/>
<path style="fill-rule:evenodd;fill:rgb(19.215686%,20%,56.470588%);fill-opacity:1;stroke-width:1.31422;stroke-linecap:round;stroke-linejoin:round;stroke:rgb(9.019608%,2.352941%,47.843137%);stroke-opacity:1;stroke-miterlimit:10;" d="M 21.478764 142.832505 L 21.478764 149.088511 L 44.054685 137.391613 L 44.054685 130.982773 Z M 21.478764 142.832505 " transform="matrix(0.37322,0,0,0.383382,45.304012,-0.368725)"/>
<path style="fill-rule:evenodd;fill:rgb(19.215686%,20%,56.470588%);fill-opacity:1;stroke-width:1.31422;stroke-linecap:round;stroke-linejoin:round;stroke:rgb(9.019608%,2.352941%,47.843137%);stroke-opacity:1;stroke-miterlimit:10;" d="M 21.593894 154.661859 L 21.593894 160.917865 L 44.169815 149.220967 L 44.169815 142.812127 Z M 21.593894 154.661859 " transform="matrix(0.37322,0,0,0.383382,45.304012,-0.368725)"/>
<path style="fill-rule:evenodd;fill:rgb(19.215686%,20%,56.470588%);fill-opacity:1;stroke-width:1.31422;stroke-linecap:round;stroke-linejoin:round;stroke:rgb(9.019608%,2.352941%,47.843137%);stroke-opacity:1;stroke-miterlimit:10;" d="M 21.63576 130.840128 L 21.63576 137.096134 L 44.222147 125.399236 L 44.222147 118.990396 Z M 21.63576 130.840128 " transform="matrix(0.37322,0,0,0.383382,45.304012,-0.368725)"/>
<path style="fill-rule:evenodd;fill:rgb(100%,100%,100%);fill-opacity:1;stroke-width:1.31422;stroke-linecap:round;stroke-linejoin:round;stroke:rgb(9.019608%,2.352941%,47.843137%);stroke-opacity:1;stroke-miterlimit:10;" d="M 21.531096 137.361046 L 21.531096 131.10504 L 44.117483 142.801938 L 44.117483 149.210778 Z M 21.531096 137.361046 " transform="matrix(0.37322,0,0,0.383382,45.304012,-0.368725)"/>
<path style="fill-rule:evenodd;fill:rgb(19.215686%,20%,56.470588%);fill-opacity:1;stroke-width:1.31422;stroke-linecap:round;stroke-linejoin:round;stroke:rgb(9.019608%,2.352941%,47.843137%);stroke-opacity:1;stroke-miterlimit:10;" d="M 21.52063 119.010774 L 21.52063 125.26678 L 44.107017 113.569882 L 44.107017 107.161042 Z M 21.52063 119.010774 " transform="matrix(0.37322,0,0,0.383382,45.304012,-0.368725)"/>
<path style="fill-rule:evenodd;fill:rgb(100%,100%,100%);fill-opacity:1;stroke-width:1.31422;stroke-linecap:round;stroke-linejoin:round;stroke:rgb(9.019608%,2.352941%,47.843137%);stroke-opacity:1;stroke-miterlimit:10;" d="M 21.415966 125.297347 L 21.415966 119.05153 L 43.991887 130.748427 L 43.991887 137.157268 Z M 21.415966 125.297347 " transform="matrix(0.37322,0,0,0.383382,45.304012,-0.368725)"/>
<path style="fill-rule:evenodd;fill:rgb(19.215686%,20%,56.470588%);fill-opacity:1;stroke-width:1.31422;stroke-linecap:round;stroke-linejoin:round;stroke:rgb(9.019608%,2.352941%,47.843137%);stroke-opacity:1;stroke-miterlimit:10;" d="M 21.625293 166.603291 L 21.625293 172.859297 L 44.201214 161.162399 L 44.201214 154.753559 Z M 21.625293 166.603291 " transform="matrix(0.37322,0,0,0.383382,45.304012,-0.368725)"/>
<path style="fill-rule:evenodd;fill:rgb(100%,100%,100%);fill-opacity:1;stroke-width:1.31422;stroke-linecap:round;stroke-linejoin:round;stroke:rgb(9.019608%,2.352941%,47.843137%);stroke-opacity:1;stroke-miterlimit:10;" d="M 21.363635 149.119078 L 21.363635 142.863072 L 43.939555 154.570158 L 43.939555 160.978999 Z M 21.363635 149.119078 " transform="matrix(0.37322,0,0,0.383382,45.304012,-0.368725)"/>
<path style="fill-rule:evenodd;fill:rgb(19.215686%,20%,56.470588%);fill-opacity:1;stroke-width:1.31422;stroke-linecap:round;stroke-linejoin:round;stroke:rgb(9.019608%,2.352941%,47.843137%);stroke-opacity:1;stroke-miterlimit:10;" d="M 21.395034 83.227233 L 21.395034 89.483239 L 43.970954 77.786342 L 43.970954 71.377501 Z M 21.395034 83.227233 " transform="matrix(0.37322,0,0,0.383382,45.304012,-0.368725)"/>
<path style="fill-rule:evenodd;fill:rgb(19.215686%,20%,56.470588%);fill-opacity:1;stroke-width:1.31422;stroke-linecap:round;stroke-linejoin:round;stroke:rgb(9.019608%,2.352941%,47.843137%);stroke-opacity:1;stroke-miterlimit:10;" d="M 21.510163 95.056587 L 21.510163 101.312593 L 44.086084 89.615695 L 44.086084 83.206855 Z M 21.510163 95.056587 " transform="matrix(0.37322,0,0,0.383382,45.304012,-0.368725)"/>
<path style="fill-rule:evenodd;fill:rgb(19.215686%,20%,56.470588%);fill-opacity:1;stroke-width:1.31422;stroke-linecap:round;stroke-linejoin:round;stroke:rgb(9.019608%,2.352941%,47.843137%);stroke-opacity:1;stroke-miterlimit:10;" d="M 21.562495 71.234856 L 21.562495 77.490862 L 44.138416 65.793965 L 44.138416 59.385124 Z M 21.562495 71.234856 " transform="matrix(0.37322,0,0,0.383382,45.304012,-0.368725)"/>
<path style="fill-rule:evenodd;fill:rgb(100%,100%,100%);fill-opacity:1;stroke-width:1.31422;stroke-linecap:round;stroke-linejoin:round;stroke:rgb(9.019608%,2.352941%,47.843137%);stroke-opacity:1;stroke-miterlimit:10;" d="M 21.447365 77.755775 L 21.447365 71.499768 L 44.033752 83.196666 L 44.033752 89.605507 Z M 21.447365 77.755775 " transform="matrix(0.37322,0,0,0.383382,45.304012,-0.368725)"/>
<path style="fill-rule:evenodd;fill:rgb(19.215686%,20%,56.470588%);fill-opacity:1;stroke-width:1.31422;stroke-linecap:round;stroke-linejoin:round;stroke:rgb(9.019608%,2.352941%,47.843137%);stroke-opacity:1;stroke-miterlimit:10;" d="M 21.436899 59.405502 L 21.436899 65.661508 L 44.023286 53.964611 L 44.023286 47.55577 Z M 21.436899 59.405502 " transform="matrix(0.37322,0,0,0.383382,45.304012,-0.368725)"/>
<path style="fill-rule:evenodd;fill:rgb(100%,100%,100%);fill-opacity:1;stroke-width:1.31422;stroke-linecap:round;stroke-linejoin:round;stroke:rgb(9.019608%,2.352941%,47.843137%);stroke-opacity:1;stroke-miterlimit:10;" d="M 21.332235 65.692075 L 21.332235 59.436069 L 43.908156 71.132967 L 43.908156 77.541807 Z M 21.332235 65.692075 " transform="matrix(0.37322,0,0,0.383382,45.304012,-0.368725)"/>
<path style="fill-rule:evenodd;fill:rgb(100%,100%,100%);fill-opacity:1;stroke-width:1.31422;stroke-linecap:round;stroke-linejoin:round;stroke:rgb(9.019608%,2.352941%,47.843137%);stroke-opacity:1;stroke-miterlimit:10;" d="M 21.499697 53.934044 L 21.499697 47.678038 L 44.086084 59.374935 L 44.086084 65.783776 Z M 21.499697 53.934044 " transform="matrix(0.37322,0,0,0.383382,45.304012,-0.368725)"/>
<path style="fill-rule:evenodd;fill:rgb(19.215686%,20%,56.470588%);fill-opacity:1;stroke-width:1.31422;stroke-linecap:round;stroke-linejoin:round;stroke:rgb(9.019608%,2.352941%,47.843137%);stroke-opacity:1;stroke-miterlimit:10;" d="M 21.541563 106.998019 L 21.541563 113.254025 L 44.117483 101.557128 L 44.117483 95.148287 Z M 21.541563 106.998019 " transform="matrix(0.37322,0,0,0.383382,45.304012,-0.368725)"/>
<path style="fill-rule:evenodd;fill:rgb(100%,100%,100%);fill-opacity:1;stroke-width:1.31422;stroke-linecap:round;stroke-linejoin:round;stroke:rgb(9.019608%,2.352941%,47.843137%);stroke-opacity:1;stroke-miterlimit:10;" d="M 21.279904 89.513806 L 21.279904 83.2578 L 43.866291 94.954698 L 43.866291 101.373727 Z M 21.279904 89.513806 " transform="matrix(0.37322,0,0,0.383382,45.304012,-0.368725)"/>
<path style="fill-rule:evenodd;fill:rgb(100%,100%,100%);fill-opacity:1;stroke-width:1.31422;stroke-linecap:round;stroke-linejoin:round;stroke:rgb(9.019608%,2.352941%,47.843137%);stroke-opacity:1;stroke-miterlimit:10;" d="M 21.583428 113.539316 L 21.583428 107.283309 L 44.159348 118.980207 L 44.159348 125.389047 Z M 21.583428 113.539316 " transform="matrix(0.37322,0,0,0.383382,45.304012,-0.368725)"/>
<path style="fill-rule:evenodd;fill:rgb(100%,100%,100%);fill-opacity:1;stroke-width:1.31422;stroke-linecap:round;stroke-linejoin:round;stroke:rgb(9.019608%,2.352941%,47.843137%);stroke-opacity:1;stroke-miterlimit:10;" d="M 21.311303 101.455238 L 21.311303 95.199232 L 43.887223 106.89613 L 43.887223 113.30497 Z M 21.311303 101.455238 " transform="matrix(0.37322,0,0,0.383382,45.304012,-0.368725)"/>
<path style="fill-rule:evenodd;fill:rgb(19.215686%,20%,56.470588%);fill-opacity:1;stroke-width:1.31422;stroke-linecap:round;stroke-linejoin:round;stroke:rgb(9.019608%,2.352941%,47.843137%);stroke-opacity:1;stroke-miterlimit:10;" d="M 21.478764 202.284942 L 21.478764 208.540949 L 44.054685 196.833862 L 44.054685 190.425022 Z M 21.478764 202.284942 " transform="matrix(0.37322,0,0,0.383382,45.304012,-0.368725)"/>
<path style="fill-rule:evenodd;fill:rgb(19.215686%,20%,56.470588%);fill-opacity:1;stroke-width:1.31422;stroke-linecap:round;stroke-linejoin:round;stroke:rgb(9.019608%,2.352941%,47.843137%);stroke-opacity:1;stroke-miterlimit:10;" d="M 21.593894 214.114296 L 21.593894 220.360114 L 44.169815 208.663216 L 44.169815 202.254376 Z M 21.593894 214.114296 " transform="matrix(0.37322,0,0,0.383382,45.304012,-0.368725)"/>
<path style="fill-rule:evenodd;fill:rgb(100%,100%,100%);fill-opacity:1;stroke-width:1.31422;stroke-linecap:round;stroke-linejoin:round;stroke:rgb(9.019608%,2.352941%,47.843137%);stroke-opacity:1;stroke-miterlimit:10;" d="M 21.363635 208.571516 L 21.363635 202.30532 L 43.939555 214.012407 L 43.939555 220.421247 Z M 21.363635 208.571516 " transform="matrix(0.37322,0,0,0.383382,45.304012,-0.368725)"/>
<path style=" stroke:none;fill-rule:evenodd;fill:rgb(19.215686%,20%,56.470588%);fill-opacity:1;" d="M 53.378906 72.582031 L 53.378906 74.980469 L 61.808594 70.496094 L 61.808594 68.039062 Z M 53.378906 72.582031 "/>
<path style="fill-rule:evenodd;fill:rgb(19.215686%,20%,56.470588%);fill-opacity:1;stroke-width:1.31422;stroke-linecap:round;stroke-linejoin:round;stroke:rgb(9.019608%,2.352941%,47.843137%);stroke-opacity:1;stroke-miterlimit:10;" d="M 21.52063 178.463212 L 21.52063 184.709029 L 44.107017 173.012131 L 44.107017 166.603291 Z M 21.52063 178.463212 " transform="matrix(0.37322,0,0,0.383382,45.304012,-0.368725)"/>
<path style="fill-rule:evenodd;fill:rgb(100%,100%,100%);fill-opacity:1;stroke-width:1.31422;stroke-linecap:round;stroke-linejoin:round;stroke:rgb(9.019608%,2.352941%,47.843137%);stroke-opacity:1;stroke-miterlimit:10;" d="M 21.395034 161.06051 L 21.395034 154.804504 L 43.970954 166.501402 L 43.970954 172.910242 Z M 21.395034 161.06051 " transform="matrix(0.37322,0,0,0.383382,45.304012,-0.368725)"/>
<path style="fill:none;stroke-width:1.31422;stroke-linecap:round;stroke-linejoin:round;stroke:rgb(9.019608%,2.352941%,47.843137%);stroke-opacity:1;stroke-miterlimit:10;" d="M 21.63576 190.282377 L 21.63576 196.538383 L 44.222147 184.841485 L 44.222147 178.432645 Z M 21.63576 190.282377 " transform="matrix(0.37322,0,0,0.383382,45.304012,-0.368725)"/>
<path style="fill-rule:evenodd;fill:rgb(100%,100%,100%);fill-opacity:1;stroke-width:1.31422;stroke-linecap:round;stroke-linejoin:round;stroke:rgb(9.019608%,2.352941%,47.843137%);stroke-opacity:1;stroke-miterlimit:10;" d="M 21.531096 196.803295 L 21.531096 190.547289 L 44.117483 202.244187 L 44.117483 208.653027 Z M 21.531096 196.803295 " transform="matrix(0.37322,0,0,0.383382,45.304012,-0.368725)"/>
<path style="fill-rule:evenodd;fill:rgb(100%,100%,100%);fill-opacity:1;stroke-width:1.31422;stroke-linecap:round;stroke-linejoin:round;stroke:rgb(9.019608%,2.352941%,47.843137%);stroke-opacity:1;stroke-miterlimit:10;" d="M 21.415966 184.749785 L 21.415966 178.493778 L 43.991887 190.190676 L 43.991887 196.599517 Z M 21.415966 184.749785 " transform="matrix(0.37322,0,0,0.383382,45.304012,-0.368725)"/>
<path style="fill-rule:evenodd;fill:rgb(100%,100%,100%);fill-opacity:1;stroke-width:1.31422;stroke-linecap:round;stroke-linejoin:round;stroke:rgb(9.019608%,2.352941%,47.843137%);stroke-opacity:1;stroke-miterlimit:10;" d="M 21.583428 172.981564 L 21.583428 166.725558 L 44.159348 178.422456 L 44.159348 184.831296 Z M 21.583428 172.981564 " transform="matrix(0.37322,0,0,0.383382,45.304012,-0.368725)"/>
<path style="fill-rule:evenodd;fill:rgb(19.215686%,20%,56.470588%);fill-opacity:1;stroke-width:1.31633;stroke-linecap:round;stroke-linejoin:round;stroke:rgb(9.019608%,2.352941%,47.843137%);stroke-opacity:1;stroke-miterlimit:10;" d="M 62.740387 280.32925 L 56.471043 280.32925 L 68.203823 302.908904 L 74.630163 302.908904 Z M 62.740387 280.32925 " transform="matrix(0.37322,0,0,0.382154,14.943418,-21.765677)"/>
<path style="fill-rule:evenodd;fill:rgb(19.215686%,20%,56.470588%);fill-opacity:1;stroke-width:1.31633;stroke-linecap:round;stroke-linejoin:round;stroke:rgb(9.019608%,2.352941%,47.843137%);stroke-opacity:1;stroke-miterlimit:10;" d="M 50.882011 280.441689 L 44.6022 280.441689 L 56.33498 303.021343 L 62.76132 303.021343 Z M 50.882011 280.441689 " transform="matrix(0.37322,0,0,0.382154,14.943418,-21.765677)"/>
<path style="fill-rule:evenodd;fill:rgb(19.215686%,20%,56.470588%);fill-opacity:1;stroke-width:1.31633;stroke-linecap:round;stroke-linejoin:round;stroke:rgb(9.019608%,2.352941%,47.843137%);stroke-opacity:1;stroke-miterlimit:10;" d="M 74.776692 280.492797 L 68.496881 280.492797 L 80.240127 303.072451 L 86.666467 303.072451 Z M 74.776692 280.492797 " transform="matrix(0.37322,0,0,0.382154,14.943418,-21.765677)"/>
<path style="fill-rule:evenodd;fill:rgb(100%,100%,100%);fill-opacity:1;stroke-width:1.31633;stroke-linecap:round;stroke-linejoin:round;stroke:rgb(9.019608%,2.352941%,47.843137%);stroke-opacity:1;stroke-miterlimit:10;" d="M 68.245688 280.380359 L 74.515033 280.380359 L 62.782253 302.970234 L 56.355913 302.970234 Z M 68.245688 280.380359 " transform="matrix(0.37322,0,0,0.382154,14.943418,-21.765677)"/>
<path style="fill-rule:evenodd;fill:rgb(19.215686%,20%,56.470588%);fill-opacity:1;stroke-width:1.31633;stroke-linecap:round;stroke-linejoin:round;stroke:rgb(9.019608%,2.352941%,47.843137%);stroke-opacity:1;stroke-miterlimit:10;" d="M 86.645535 280.380359 L 80.365724 280.380359 L 92.098504 302.960013 L 98.53531 302.960013 Z M 86.645535 280.380359 " transform="matrix(0.37322,0,0,0.382154,14.943418,-21.765677)"/>
<path style="fill-rule:evenodd;fill:rgb(100%,100%,100%);fill-opacity:1;stroke-width:1.31633;stroke-linecap:round;stroke-linejoin:round;stroke:rgb(9.019608%,2.352941%,47.843137%);stroke-opacity:1;stroke-miterlimit:10;" d="M 80.334325 280.26792 L 86.614136 280.26792 L 74.870889 302.847574 L 68.444549 302.847574 Z M 80.334325 280.26792 " transform="matrix(0.37322,0,0,0.382154,14.943418,-21.765677)"/>
<path style="fill-rule:evenodd;fill:rgb(19.215686%,20%,56.470588%);fill-opacity:1;stroke-width:1.31633;stroke-linecap:round;stroke-linejoin:round;stroke:rgb(9.019608%,2.352941%,47.843137%);stroke-opacity:1;stroke-miterlimit:10;" d="M 38.898038 280.472354 L 32.628694 280.472354 L 44.361474 303.052008 L 50.787814 303.052008 Z M 38.898038 280.472354 " transform="matrix(0.37322,0,0,0.382154,14.943418,-21.765677)"/>
<path style="fill-rule:evenodd;fill:rgb(100%,100%,100%);fill-opacity:1;stroke-width:1.31633;stroke-linecap:round;stroke-linejoin:round;stroke:rgb(9.019608%,2.352941%,47.843137%);stroke-opacity:1;stroke-miterlimit:10;" d="M 56.439644 280.216812 L 62.708988 280.216812 L 50.976208 302.796466 L 44.549868 302.796466 Z M 56.439644 280.216812 " transform="matrix(0.37322,0,0,0.382154,14.943418,-21.765677)"/>
<path style="fill-rule:evenodd;fill:rgb(19.215686%,20%,56.470588%);fill-opacity:1;stroke-width:1.31633;stroke-linecap:round;stroke-linejoin:round;stroke:rgb(9.019608%,2.352941%,47.843137%);stroke-opacity:1;stroke-miterlimit:10;" d="M 110.676278 280.359915 L 104.396467 280.359915 L 116.139714 302.939569 L 122.566054 302.939569 Z M 110.676278 280.359915 " transform="matrix(0.37322,0,0,0.382154,14.943418,-21.765677)"/>
<path style="fill-rule:evenodd;fill:rgb(19.215686%,20%,56.470588%);fill-opacity:1;stroke-width:1.31633;stroke-linecap:round;stroke-linejoin:round;stroke:rgb(9.019608%,2.352941%,47.843137%);stroke-opacity:1;stroke-miterlimit:10;" d="M 98.702772 280.39058 L 92.422961 280.39058 L 104.155741 302.970234 L 110.592547 302.970234 Z M 98.702772 280.39058 " transform="matrix(0.37322,0,0,0.382154,14.943418,-21.765677)"/>
<path style="fill-rule:evenodd;fill:rgb(100%,100%,100%);fill-opacity:1;stroke-width:1.31633;stroke-linecap:round;stroke-linejoin:round;stroke:rgb(9.019608%,2.352941%,47.843137%);stroke-opacity:1;stroke-miterlimit:10;" d="M 116.233911 280.135039 L 122.513722 280.135039 L 110.780942 302.714693 L 104.344135 302.714693 Z M 116.233911 280.135039 " transform="matrix(0.37322,0,0,0.382154,14.943418,-21.765677)"/>
<path style="fill-rule:evenodd;fill:rgb(100%,100%,100%);fill-opacity:1;stroke-width:1.31633;stroke-linecap:round;stroke-linejoin:round;stroke:rgb(9.019608%,2.352941%,47.843137%);stroke-opacity:1;stroke-miterlimit:10;" d="M 92.140369 280.431467 L 98.409714 280.431467 L 86.676934 303.011121 L 80.250594 303.011121 Z M 92.140369 280.431467 " transform="matrix(0.37322,0,0,0.382154,14.943418,-21.765677)"/>
<path style="fill-rule:evenodd;fill:rgb(100%,100%,100%);fill-opacity:1;stroke-width:1.31633;stroke-linecap:round;stroke-linejoin:round;stroke:rgb(9.019608%,2.352941%,47.843137%);stroke-opacity:1;stroke-miterlimit:10;" d="M 104.260405 280.165704 L 110.540216 280.165704 L 98.796969 302.745358 L 92.370629 302.745358 Z M 104.260405 280.165704 " transform="matrix(0.37322,0,0,0.382154,14.943418,-21.765677)"/>
<path style="fill-rule:evenodd;fill:rgb(19.215686%,20%,56.470588%);fill-opacity:1;stroke-width:1.31633;stroke-linecap:round;stroke-linejoin:round;stroke:rgb(9.019608%,2.352941%,47.843137%);stroke-opacity:1;stroke-miterlimit:10;" d="M 3.113582 280.32925 L -3.166229 280.32925 L 8.577017 302.908904 L 15.003357 302.908904 Z M 3.113582 280.32925 " transform="matrix(0.37322,0,0,0.382154,14.943418,-21.765677)"/>
<path style="fill-rule:evenodd;fill:rgb(19.215686%,20%,56.470588%);fill-opacity:1;stroke-width:1.31633;stroke-linecap:round;stroke-linejoin:round;stroke:rgb(9.019608%,2.352941%,47.843137%);stroke-opacity:1;stroke-miterlimit:10;" d="M -8.755261 280.441689 L -15.035072 280.441689 L -3.291825 303.021343 L 3.134515 303.021343 Z M -8.755261 280.441689 " transform="matrix(0.37322,0,0,0.382154,14.943418,-21.765677)"/>
<path style="fill-rule:evenodd;fill:rgb(100%,100%,100%);fill-opacity:1;stroke-width:1.31633;stroke-linecap:round;stroke-linejoin:round;stroke:rgb(9.019608%,2.352941%,47.843137%);stroke-opacity:1;stroke-miterlimit:10;" d="M -3.197628 280.216812 L 3.082183 280.216812 L -8.661064 302.796466 L -15.087404 302.796466 Z M -3.197628 280.216812 " transform="matrix(0.37322,0,0,0.382154,14.943418,-21.765677)"/>
<path style=" stroke:none;fill-rule:evenodd;fill:rgb(19.215686%,20%,56.470588%);fill-opacity:1;" d="M 20.59375 85.425781 L 18.253906 85.425781 L 22.632812 94.054688 L 25.03125 94.054688 Z M 20.59375 85.425781 "/>
<path style="fill-rule:evenodd;fill:rgb(19.215686%,20%,56.470588%);fill-opacity:1;stroke-width:1.31633;stroke-linecap:round;stroke-linejoin:round;stroke:rgb(9.019608%,2.352941%,47.843137%);stroke-opacity:1;stroke-miterlimit:10;" d="M 27.008263 280.380359 L 20.728452 280.380359 L 32.471698 302.960013 L 38.898038 302.960013 Z M 27.008263 280.380359 " transform="matrix(0.37322,0,0,0.382154,14.943418,-21.765677)"/>
<path style="fill-rule:evenodd;fill:rgb(100%,100%,100%);fill-opacity:1;stroke-width:1.31633;stroke-linecap:round;stroke-linejoin:round;stroke:rgb(9.019608%,2.352941%,47.843137%);stroke-opacity:1;stroke-miterlimit:10;" d="M 44.466137 280.247477 L 50.735482 280.247477 L 39.002702 302.827131 L 32.576362 302.827131 Z M 44.466137 280.247477 " transform="matrix(0.37322,0,0,0.382154,14.943418,-21.765677)"/>
<path style="fill:none;stroke-width:1.31633;stroke-linecap:round;stroke-linejoin:round;stroke:rgb(9.019608%,2.352941%,47.843137%);stroke-opacity:1;stroke-miterlimit:10;" d="M 15.13942 280.492797 L 8.870075 280.492797 L 20.602856 303.072451 L 27.029196 303.072451 Z M 15.13942 280.492797 " transform="matrix(0.37322,0,0,0.382154,14.943418,-21.765677)"/>
<path style="fill-rule:evenodd;fill:rgb(100%,100%,100%);fill-opacity:1;stroke-width:1.31633;stroke-linecap:round;stroke-linejoin:round;stroke:rgb(9.019608%,2.352941%,47.843137%);stroke-opacity:1;stroke-miterlimit:10;" d="M 8.608417 280.380359 L 14.888228 280.380359 L 3.144981 302.970234 L -3.281359 302.970234 Z M 8.608417 280.380359 " transform="matrix(0.37322,0,0,0.382154,14.943418,-21.765677)"/>
<path style="fill-rule:evenodd;fill:rgb(100%,100%,100%);fill-opacity:1;stroke-width:1.31633;stroke-linecap:round;stroke-linejoin:round;stroke:rgb(9.019608%,2.352941%,47.843137%);stroke-opacity:1;stroke-miterlimit:10;" d="M 20.707519 280.26792 L 26.976864 280.26792 L 15.244084 302.847574 L 8.817744 302.847574 Z M 20.707519 280.26792 " transform="matrix(0.37322,0,0,0.382154,14.943418,-21.765677)"/>
<path style="fill-rule:evenodd;fill:rgb(100%,100%,100%);fill-opacity:1;stroke-width:1.31633;stroke-linecap:round;stroke-linejoin:round;stroke:rgb(9.019608%,2.352941%,47.843137%);stroke-opacity:1;stroke-miterlimit:10;" d="M 32.503097 280.431467 L 38.782908 280.431467 L 27.050128 303.011121 L 20.613322 303.011121 Z M 32.503097 280.431467 " transform="matrix(0.37322,0,0,0.382154,14.943418,-21.765677)"/>
<path style="fill-rule:evenodd;fill:rgb(19.215686%,20%,56.470588%);fill-opacity:1;stroke-width:1.31633;stroke-linecap:round;stroke-linejoin:round;stroke:rgb(9.019608%,2.352941%,47.843137%);stroke-opacity:1;stroke-miterlimit:10;" d="M 62.740066 280.325965 L 56.470715 280.325965 L 68.203508 302.905619 L 74.629854 302.905619 Z M 62.740066 280.325965 " transform="matrix(0.373219,0,0,0.382154,14.943562,-99.108172)"/>
<path style="fill-rule:evenodd;fill:rgb(19.215686%,20%,56.470588%);fill-opacity:1;stroke-width:1.31633;stroke-linecap:round;stroke-linejoin:round;stroke:rgb(9.019608%,2.352941%,47.843137%);stroke-opacity:1;stroke-miterlimit:10;" d="M 50.881678 280.438403 L 44.60186 280.438403 L 56.334653 303.018057 L 62.771466 303.018057 Z M 50.881678 280.438403 " transform="matrix(0.373219,0,0,0.382154,14.943562,-99.108172)"/>
<path style="fill-rule:evenodd;fill:rgb(19.215686%,20%,56.470588%);fill-opacity:1;stroke-width:1.31633;stroke-linecap:round;stroke-linejoin:round;stroke:rgb(9.019608%,2.352941%,47.843137%);stroke-opacity:1;stroke-miterlimit:10;" d="M 74.776383 280.489511 L 68.496566 280.489511 L 80.239824 303.069165 L 86.666171 303.069165 Z M 74.776383 280.489511 " transform="matrix(0.373219,0,0,0.382154,14.943562,-99.108172)"/>
<path style="fill-rule:evenodd;fill:rgb(100%,100%,100%);fill-opacity:1;stroke-width:1.31633;stroke-linecap:round;stroke-linejoin:round;stroke:rgb(9.019608%,2.352941%,47.843137%);stroke-opacity:1;stroke-miterlimit:10;" d="M 68.245373 280.387295 L 74.514724 280.387295 L 62.781932 302.966949 L 56.355585 302.966949 Z M 68.245373 280.387295 " transform="matrix(0.373219,0,0,0.382154,14.943562,-99.108172)"/>
<path style="fill-rule:evenodd;fill:rgb(19.215686%,20%,56.470588%);fill-opacity:1;stroke-width:1.31633;stroke-linecap:round;stroke-linejoin:round;stroke:rgb(9.019608%,2.352941%,47.843137%);stroke-opacity:1;stroke-miterlimit:10;" d="M 86.645238 280.377073 L 80.365421 280.377073 L 92.098213 302.956727 L 98.535026 302.956727 Z M 86.645238 280.377073 " transform="matrix(0.373219,0,0,0.382154,14.943562,-99.108172)"/>
<path style="fill-rule:evenodd;fill:rgb(100%,100%,100%);fill-opacity:1;stroke-width:1.31633;stroke-linecap:round;stroke-linejoin:round;stroke:rgb(9.019608%,2.352941%,47.843137%);stroke-opacity:1;stroke-miterlimit:10;" d="M 80.334022 280.264635 L 86.613839 280.264635 L 74.87058 302.844289 L 68.444234 302.844289 Z M 80.334022 280.264635 " transform="matrix(0.373219,0,0,0.382154,14.943562,-99.108172)"/>
<path style="fill-rule:evenodd;fill:rgb(19.215686%,20%,56.470588%);fill-opacity:1;stroke-width:1.31633;stroke-linecap:round;stroke-linejoin:round;stroke:rgb(9.019608%,2.352941%,47.843137%);stroke-opacity:1;stroke-miterlimit:10;" d="M 38.897693 280.469068 L 32.628342 280.469068 L 44.361134 303.048722 L 50.787481 303.048722 Z M 38.897693 280.469068 " transform="matrix(0.373219,0,0,0.382154,14.943562,-99.108172)"/>
<path style="fill-rule:evenodd;fill:rgb(100%,100%,100%);fill-opacity:1;stroke-width:1.31633;stroke-linecap:round;stroke-linejoin:round;stroke:rgb(9.019608%,2.352941%,47.843137%);stroke-opacity:1;stroke-miterlimit:10;" d="M 56.439316 280.213526 L 62.708667 280.213526 L 50.975875 302.79318 L 44.549529 302.79318 Z M 56.439316 280.213526 " transform="matrix(0.373219,0,0,0.382154,14.943562,-99.108172)"/>
<path style="fill-rule:evenodd;fill:rgb(19.215686%,20%,56.470588%);fill-opacity:1;stroke-width:1.31633;stroke-linecap:round;stroke-linejoin:round;stroke:rgb(9.019608%,2.352941%,47.843137%);stroke-opacity:1;stroke-miterlimit:10;" d="M 110.676006 280.35663 L 104.396189 280.35663 L 116.139447 302.936284 L 122.565794 302.936284 Z M 110.676006 280.35663 " transform="matrix(0.373219,0,0,0.382154,14.943562,-99.108172)"/>
<path style="fill-rule:evenodd;fill:rgb(19.215686%,20%,56.470588%);fill-opacity:1;stroke-width:1.31633;stroke-linecap:round;stroke-linejoin:round;stroke:rgb(9.019608%,2.352941%,47.843137%);stroke-opacity:1;stroke-miterlimit:10;" d="M 98.702488 280.387295 L 92.42267 280.387295 L 104.155462 302.966949 L 110.592275 302.966949 Z M 98.702488 280.387295 " transform="matrix(0.373219,0,0,0.382154,14.943562,-99.108172)"/>
<path style="fill-rule:evenodd;fill:rgb(100%,100%,100%);fill-opacity:1;stroke-width:1.31633;stroke-linecap:round;stroke-linejoin:round;stroke:rgb(9.019608%,2.352941%,47.843137%);stroke-opacity:1;stroke-miterlimit:10;" d="M 116.233644 280.131753 L 122.513462 280.131753 L 110.78067 302.711407 L 104.343857 302.711407 Z M 116.233644 280.131753 " transform="matrix(0.373219,0,0,0.382154,14.943562,-99.108172)"/>
<path style="fill-rule:evenodd;fill:rgb(100%,100%,100%);fill-opacity:1;stroke-width:1.31633;stroke-linecap:round;stroke-linejoin:round;stroke:rgb(9.019608%,2.352941%,47.843137%);stroke-opacity:1;stroke-miterlimit:10;" d="M 92.140078 280.438403 L 98.419896 280.438403 L 86.676637 303.018057 L 80.250291 303.018057 Z M 92.140078 280.438403 " transform="matrix(0.373219,0,0,0.382154,14.943562,-99.108172)"/>
<path style="fill-rule:evenodd;fill:rgb(100%,100%,100%);fill-opacity:1;stroke-width:1.31633;stroke-linecap:round;stroke-linejoin:round;stroke:rgb(9.019608%,2.352941%,47.843137%);stroke-opacity:1;stroke-miterlimit:10;" d="M 104.260126 280.162418 L 110.539943 280.162418 L 98.796685 302.742072 L 92.370338 302.742072 Z M 104.260126 280.162418 " transform="matrix(0.373219,0,0,0.382154,14.943562,-99.108172)"/>
<path style="fill-rule:evenodd;fill:rgb(19.215686%,20%,56.470588%);fill-opacity:1;stroke-width:1.31633;stroke-linecap:round;stroke-linejoin:round;stroke:rgb(9.019608%,2.352941%,47.843137%);stroke-opacity:1;stroke-miterlimit:10;" d="M 3.1132 280.325965 L -3.166617 280.325965 L 8.576641 302.905619 L 15.002988 302.905619 Z M 3.1132 280.325965 " transform="matrix(0.373219,0,0,0.382154,14.943562,-99.108172)"/>
<path style="fill-rule:evenodd;fill:rgb(19.215686%,20%,56.470588%);fill-opacity:1;stroke-width:1.31633;stroke-linecap:round;stroke-linejoin:round;stroke:rgb(9.019608%,2.352941%,47.843137%);stroke-opacity:1;stroke-miterlimit:10;" d="M -8.755655 280.438403 L -15.035472 280.438403 L -3.292214 303.018057 L 3.134133 303.018057 Z M -8.755655 280.438403 " transform="matrix(0.373219,0,0,0.382154,14.943562,-99.108172)"/>
<path style="fill-rule:evenodd;fill:rgb(100%,100%,100%);fill-opacity:1;stroke-width:1.31633;stroke-linecap:round;stroke-linejoin:round;stroke:rgb(9.019608%,2.352941%,47.843137%);stroke-opacity:1;stroke-miterlimit:10;" d="M -3.198016 280.213526 L 3.081801 280.213526 L -8.650991 302.79318 L -15.087804 302.79318 Z M -3.198016 280.213526 " transform="matrix(0.373219,0,0,0.382154,14.943562,-99.108172)"/>
<path style=" stroke:none;fill-rule:evenodd;fill:rgb(19.215686%,20%,56.470588%);fill-opacity:1;" d="M 20.59375 8.082031 L 18.253906 8.082031 L 22.632812 16.710938 L 25.03125 16.710938 Z M 20.59375 8.082031 "/>
<path style="fill-rule:evenodd;fill:rgb(19.215686%,20%,56.470588%);fill-opacity:1;stroke-width:1.31633;stroke-linecap:round;stroke-linejoin:round;stroke:rgb(9.019608%,2.352941%,47.843137%);stroke-opacity:1;stroke-miterlimit:10;" d="M 27.007905 280.377073 L 20.728088 280.377073 L 32.471347 302.956727 L 38.897693 302.956727 Z M 27.007905 280.377073 " transform="matrix(0.373219,0,0,0.382154,14.943562,-99.108172)"/>
<path style="fill-rule:evenodd;fill:rgb(100%,100%,100%);fill-opacity:1;stroke-width:1.31633;stroke-linecap:round;stroke-linejoin:round;stroke:rgb(9.019608%,2.352941%,47.843137%);stroke-opacity:1;stroke-miterlimit:10;" d="M 44.465798 280.244191 L 50.735149 280.244191 L 39.002357 302.823845 L 32.57601 302.823845 Z M 44.465798 280.244191 " transform="matrix(0.373219,0,0,0.382154,14.943562,-99.108172)"/>
<path style="fill:none;stroke-width:1.31633;stroke-linecap:round;stroke-linejoin:round;stroke:rgb(9.019608%,2.352941%,47.843137%);stroke-opacity:1;stroke-miterlimit:10;" d="M 15.13905 280.489511 L 8.869699 280.489511 L 20.602492 303.069165 L 27.028838 303.069165 Z M 15.13905 280.489511 " transform="matrix(0.373219,0,0,0.382154,14.943562,-99.108172)"/>
<path style="fill-rule:evenodd;fill:rgb(100%,100%,100%);fill-opacity:1;stroke-width:1.31633;stroke-linecap:round;stroke-linejoin:round;stroke:rgb(9.019608%,2.352941%,47.843137%);stroke-opacity:1;stroke-miterlimit:10;" d="M 8.60804 280.387295 L 14.887858 280.387295 L 3.144599 302.966949 L -3.281747 302.966949 Z M 8.60804 280.387295 " transform="matrix(0.373219,0,0,0.382154,14.943562,-99.108172)"/>
<path style="fill-rule:evenodd;fill:rgb(100%,100%,100%);fill-opacity:1;stroke-width:1.31633;stroke-linecap:round;stroke-linejoin:round;stroke:rgb(9.019608%,2.352941%,47.843137%);stroke-opacity:1;stroke-miterlimit:10;" d="M 20.707155 280.264635 L 26.976506 280.264635 L 15.243714 302.844289 L 8.817368 302.844289 Z M 20.707155 280.264635 " transform="matrix(0.373219,0,0,0.382154,14.943562,-99.108172)"/>
<path style="fill-rule:evenodd;fill:rgb(100%,100%,100%);fill-opacity:1;stroke-width:1.31633;stroke-linecap:round;stroke-linejoin:round;stroke:rgb(9.019608%,2.352941%,47.843137%);stroke-opacity:1;stroke-miterlimit:10;" d="M 32.502746 280.438403 L 38.782563 280.438403 L 27.049771 303.018057 L 20.612958 303.018057 Z M 32.502746 280.438403 " transform="matrix(0.373219,0,0,0.382154,14.943562,-99.108172)"/>
</g>
</svg>
